# xmcd
#
# Track frame offsets: 
#        150
#        16629
#        37468
#        54044
#        67346
#        80286
#        97432
#        113966
#        132994
#        150713
#        169463
#        182932
#
# Disc length: 2704 seconds
#
# Revision: 0
# Processed by: cddbd v1.5.2PL0 Copyright (c) Steve Scherf et al.
# Submitted via: ExactAudioCopyFreeDBPlugin 1.0
#
DISCID=ac0a8e0c
DTITLE=Leroy Jodie Pierson - Country Blues
DYEAR=2007
DGENRE=Blues
TTITLE0=Shake 'Em On Down
TTITLE1=No Feeling's[sic] For Other Folk
TTITLE2=Black Spider Blues
TTITLE3=You Got To Move
TTITLE4=Old Coutry Rock
TTITLE5=Death Letter Blues
TTITLE6=Closer Walk With Thee
TTITLE7=Hunky Tunky Blues
TTITLE8=Illinois Blues #2
TTITLE9=Cocaine Blues
TTITLE10=God Moved On The Water
TTITLE11=Leroy's Green River Blues
EXTD=
EXTT0=
EXTT1=
EXTT2=
EXTT3=
EXTT4=
EXTT5=
EXTT6=
EXTT7=
EXTT8=
EXTT9=
EXTT10=
EXTT11=
PLAYORDER=
